# xmcd
#
# Track frame offsets:
#	150
#	16736
#	37044
#	56319
#	72594
#	100252
#	121108
#	144797
#	163903
#	179083
#	198603
#	220739
#	241472
#	274307
#
# Disc length: 4014 seconds
#
# Revision: 1
# Processed by: cddbd v1.5.1PL2 Copyright (c) Steve Scherf et al.
# Submitted via: EasyCDDAExtractor 9.0.0.1
#
DISCID=cf0fac0e
DTITLE=Judas Priest - Zenith Munich 13-03-05 Disc 1
DYEAR=2005
DGENRE=Hard Rock
TTITLE0=The Hellion
TTITLE1=Electric Eye
TTITLE2=Metal Gods
TTITLE3=Riding On The Wind
TTITLE4=The Ripper
TTITLE5=A Touch Of Evil
TTITLE6=Judas Rising
TTITLE7=Revolution
TTITLE8=Hot Rockin'
TTITLE9=Breaking The Law
TTITLE10=I'm A Rocker
TTITLE11=Diamonds And Rust
TTITLE12=Deal With Devil
TTITLE13=Beyond The Realms Of Death
EXTD=
EXTT0=
EXTT1=
EXTT2=
EXTT3=
EXTT4=
EXTT5=
EXTT6=
EXTT7=
EXTT8=
EXTT9=
EXTT10=
EXTT11=
EXTT12=
EXTT13=
PLAYORDER=
